<svg width="24" height="24" viewBox="0 0 24 24" fill="none" xmlns="http://www.w3.org/2000/svg">
<mask id="mask0_1040_10732" style="mask-type:alpha" maskUnits="userSpaceOnUse" x="0" y="0" width="24" height="24">
<rect width="24" height="24" fill="#D9D9D9"/>
</mask>
<g mask="url(#mask0_1040_10732)">
<path d="M6.9999 22.0897C6.44991 22.0897 5.97907 21.8938 5.58741 21.5022C5.19574 21.1105 4.99991 20.6397 4.99991 20.0897C4.99991 19.5397 5.19574 19.0688 5.58741 18.6772C5.97907 18.2855 6.44991 18.0897 6.9999 18.0897C7.5499 18.0897 8.02074 18.2855 8.41241 18.6772C8.80407 19.0688 8.99991 19.5397 8.99991 20.0897C8.99991 20.6397 8.80407 21.1105 8.41241 21.5022C8.02074 21.8938 7.5499 22.0897 6.9999 22.0897ZM16.9999 22.0897C16.4499 22.0897 15.9791 21.8938 15.5874 21.5022C15.1957 21.1105 14.9999 20.6397 14.9999 20.0897C14.9999 19.5397 15.1957 19.0688 15.5874 18.6772C15.9791 18.2855 16.4499 18.0897 16.9999 18.0897C17.5499 18.0897 18.0207 18.2855 18.4124 18.6772C18.8041 19.0688 18.9999 19.5397 18.9999 20.0897C18.9999 20.6397 18.8041 21.1105 18.4124 21.5022C18.0207 21.8938 17.5499 22.0897 16.9999 22.0897ZM6.29941 6.08966L8.5619 10.8147H15.5379L18.1324 6.08966H6.29941ZM5.25366 3.91016H19.7767C20.2302 3.91016 20.5752 4.11091 20.8119 4.51241C21.0484 4.91391 21.0571 5.32149 20.8379 5.73516L17.4254 11.9022C17.2341 12.2473 16.9774 12.5166 16.6554 12.7099C16.3332 12.9032 15.9807 12.9999 15.5977 12.9999H8.20166L7.15541 14.9102H19.0897V17.0897H6.9999C6.20607 17.0897 5.60949 16.7445 5.21016 16.0542C4.81099 15.364 4.79632 14.68 5.16616 14.0022L6.49816 11.5999L2.94616 4.08966H0.910156V1.91016H4.30366L5.25366 3.91016Z" fill="#F15D2A"/>
</g>
</svg>
